<svg xmlns="http://www.w3.org/2000/svg" width="437.746" height="350.811" viewBox="0 0 437.746 350.811">
  <g id="hantel" transform="translate(0 30.5)" opacity="0.261">
    <path id="Path_130" data-name="Path 130" d="M218.836,205.969a7.494,7.494,0,0,1-7.168-5.312L188.9,125.875H120.715a7.494,7.494,0,1,1,0-14.988h73.738a7.5,7.5,0,0,1,7.172,5.313l17.211,56.543,25.141-82.578a7.492,7.492,0,0,1,14.336,0L269.191,125.9H335.1a7.494,7.494,0,0,1,0,14.988H263.641a7.491,7.491,0,0,1-7.168-5.309l-5.328-17.5L226,200.656A7.487,7.487,0,0,1,218.836,205.969Zm0,0" transform="translate(-30.745 -44.843)" fill="#b9929f"/>
    <path id="Path_131" data-name="Path 131" d="M424.23,55.841a6.319,6.319,0,0,0-8.73-2.5,6.665,6.665,0,0,0-2.431,8.955,96.557,96.557,0,0,1,11.863,46.214c.08,43.089-24.049,91.023-71.711,142.471-38.8,41.886-82.348,73.874-99.267,85.681a8.059,8.059,0,0,1-9.318,0c-15-10.466-51.459-37.177-86.77-72.671h59.778v26.642a15.165,15.165,0,0,0,14.949,15.34h13.957a15.166,15.166,0,0,0,14.952-15.34v-.555a14.623,14.623,0,0,0,2.134.175h13.957a15.165,15.165,0,0,0,14.949-15.34V199.881a15.165,15.165,0,0,0-14.949-15.34H263.636a14.164,14.164,0,0,0-2.134.178v-.559a15.166,15.166,0,0,0-14.952-15.34H232.593a15.165,15.165,0,0,0-14.949,15.34v25.994h-20.2a6.577,6.577,0,0,0,0,13.15h20.2v27.54H74.9v-27.54h93.566a6.577,6.577,0,0,0,0-13.15H112.021c-25.512-36.214-38.42-70.4-38.364-101.641C73.751,56.176,115.3,13.65,166.306,13.65h.13c28.181.038,54.478,13.026,72.148,35.631a13.517,13.517,0,0,0,21.421,0c17.671-22.605,43.968-35.59,72.148-35.631h.13a90.95,90.95,0,0,1,63.575,26.066,6.3,6.3,0,0,0,9.057-.257,6.7,6.7,0,0,0-.254-9.294A103.515,103.515,0,0,0,332.284.5h-.15c-32.078.045-62.012,14.826-82.124,40.556a.91.91,0,0,1-1.429,0C228.468,15.329,198.534.548,166.456.5h-.15C108.251.5,60.95,48.914,60.843,108.491c-.057,31.793,11.889,65.947,35.528,101.665H74.9v-26a15.165,15.165,0,0,0-14.949-15.34H45.992a15.165,15.165,0,0,0-14.949,15.34v.559a14.623,14.623,0,0,0-2.134-.175H14.949A15.165,15.165,0,0,0,0,199.881V274.91a15.165,15.165,0,0,0,14.949,15.34h13.96a14.623,14.623,0,0,0,2.134-.175v.559a15.165,15.165,0,0,0,14.949,15.34h13.96A15.165,15.165,0,0,0,74.9,290.634V263.992h64.888c38.721,40.9,81.049,71.965,97.641,83.546a20.54,20.54,0,0,0,23.729,0c17.263-12.046,61.692-44.689,101.348-87.5,50.009-53.98,75.324-104.972,75.241-151.553A110.03,110.03,0,0,0,424.23,55.841ZM263.636,197.691H277.6a2.166,2.166,0,0,1,2.134,2.19V274.91A2.167,2.167,0,0,1,277.6,277.1h-13.96a2.167,2.167,0,0,1-2.134-2.193V199.881A2.167,2.167,0,0,1,263.636,197.691Zm-33.177-13.534a2.164,2.164,0,0,1,2.134-2.19h13.957a2.167,2.167,0,0,1,2.137,2.19V290.634a2.167,2.167,0,0,1-2.137,2.19H232.593a2.164,2.164,0,0,1-2.134-2.19ZM62.086,290.634a2.167,2.167,0,0,1-2.134,2.193H45.992a2.167,2.167,0,0,1-2.134-2.193V238.648a6.409,6.409,0,1,0-12.815,0V274.91a2.168,2.168,0,0,1-2.137,2.193H14.949a2.167,2.167,0,0,1-2.134-2.193V199.881a2.166,2.166,0,0,1,2.134-2.19h13.96a2.166,2.166,0,0,1,2.134,2.19v8.078a6.409,6.409,0,1,0,12.815,0v-23.8a2.167,2.167,0,0,1,2.137-2.19H59.952a2.167,2.167,0,0,1,2.134,2.19Zm0,0" transform="translate(0 -31)" fill="#b9929f"/>
  </g>
</svg>
