<svg xmlns="http://www.w3.org/2000/svg" width="22.526" height="15.02" viewBox="0 0 22.526 15.02"><path d="M20.025,15.019H2.515a2.5,2.5,0,0,1-2.5-2.5V3.755C.015,2.791-.122.807.483.47A10.974,10.974,0,0,0,1.906,2.616L9.377,9.293a2.2,2.2,0,0,0,1.894.563,2.538,2.538,0,0,0,1.951-.778l7.746-6.5A12.167,12.167,0,0,0,22.058.47c.462.6.469,2.443.469,3.285v8.761A2.5,2.5,0,0,1,20.025,15.019Zm-6.8-7.193a2.915,2.915,0,0,1-1.951,1.091,2.472,2.472,0,0,1-1.894-.876L1.906,1.364A2.564,2.564,0,0,1,1.279,0H21.615a2.448,2.448,0,0,1-.647,1.328Z" transform="translate(-0.001 0.001)" fill="#9c528b" fill-rule="evenodd" opacity="0.7"/></svg>