<svg xmlns="http://www.w3.org/2000/svg" width="512" height="399.859" viewBox="0 0 512 399.859"><g transform="translate(0 -0.5)" opacity="0.261"><path d="M218.836,205.969a7.494,7.494,0,0,1-7.168-5.312L188.9,125.875H120.715a7.494,7.494,0,1,1,0-14.988h73.738a7.5,7.5,0,0,1,7.172,5.313l17.211,56.543,25.141-82.578a7.492,7.492,0,0,1,14.336,0L269.191,125.9H335.1a7.494,7.494,0,0,1,0,14.988H263.641a7.491,7.491,0,0,1-7.168-5.309l-5.328-17.5L226,200.656A7.487,7.487,0,0,1,218.836,205.969Zm0,0" fill="#b9929f"/><path d="M496.191,63.578a7.493,7.493,0,1,0-13.055,7.359,107.857,107.857,0,0,1,13.875,52.676c.094,49.113-28.129,103.75-83.875,162.391-45.387,47.742-96.316,84.2-116.105,97.66a9.628,9.628,0,0,1-10.9,0c-17.543-11.93-60.187-42.375-101.488-82.832h69.918V331.2a17.5,17.5,0,0,0,17.484,17.484h16.324A17.505,17.505,0,0,0,305.859,331.2v-.633a17.541,17.541,0,0,0,2.5.2H324.68a17.5,17.5,0,0,0,17.484-17.484V227.758a17.5,17.5,0,0,0-17.484-17.484H308.355a16.987,16.987,0,0,0-2.5.2v-.637a17.505,17.505,0,0,0-17.488-17.484H272.047a17.5,17.5,0,0,0-17.484,17.484v29.629H230.938a7.494,7.494,0,1,0,0,14.988h23.625v31.391H87.605V254.457H197.043a7.494,7.494,0,1,0,0-14.988h-66.02c-29.84-41.277-44.937-80.242-44.871-115.852A108.479,108.479,0,0,1,194.516,15.488h.152A107.892,107.892,0,0,1,279.055,56.1a16.065,16.065,0,0,0,25.055,0A107.9,107.9,0,0,1,388.5,15.488h.152A107.832,107.832,0,0,1,463.008,45.2a7.492,7.492,0,1,0,10.3-10.887A122.731,122.731,0,0,0,388.648.5h-.176a122.809,122.809,0,0,0-96.055,46.227,1.081,1.081,0,0,1-1.672,0A122.833,122.833,0,0,0,194.691.5h-.176C126.613.5,71.289,55.684,71.164,123.59c-.066,36.238,13.906,75.168,41.555,115.879H87.605V209.836a17.5,17.5,0,0,0-17.484-17.484H53.793a17.5,17.5,0,0,0-17.484,17.484v.637a17.541,17.541,0,0,0-2.5-.2H17.484A17.5,17.5,0,0,0,0,227.758v85.52a17.5,17.5,0,0,0,17.484,17.484H33.813a17.541,17.541,0,0,0,2.5-.2v.637a17.5,17.5,0,0,0,17.484,17.484H70.121A17.5,17.5,0,0,0,87.605,331.2V300.832H163.5c45.289,46.617,94.8,82.027,114.2,95.227a24.538,24.538,0,0,0,27.754,0c20.191-13.73,72.156-50.937,118.539-99.73,58.492-61.527,88.1-119.648,88-172.742A122.907,122.907,0,0,0,496.191,63.578ZM308.355,225.262h16.328a2.5,2.5,0,0,1,2.5,2.5v85.52a2.5,2.5,0,0,1-2.5,2.5H308.355a2.5,2.5,0,0,1-2.5-2.5v-85.52A2.5,2.5,0,0,1,308.355,225.262Zm-38.8-15.426a2.5,2.5,0,0,1,2.5-2.5h16.324a2.5,2.5,0,0,1,2.5,2.5V331.2a2.5,2.5,0,0,1-2.5,2.5H272.047a2.5,2.5,0,0,1-2.5-2.5ZM72.617,331.2a2.5,2.5,0,0,1-2.5,2.5H53.793a2.5,2.5,0,0,1-2.5-2.5V271.945a7.494,7.494,0,0,0-14.988,0v41.332a2.5,2.5,0,0,1-2.5,2.5H17.484a2.5,2.5,0,0,1-2.5-2.5v-85.52a2.5,2.5,0,0,1,2.5-2.5H33.813a2.5,2.5,0,0,1,2.5,2.5v9.207a7.494,7.494,0,0,0,14.988,0V209.836a2.5,2.5,0,0,1,2.5-2.5H70.121a2.5,2.5,0,0,1,2.5,2.5Zm0,0" fill="#b9929f"/></g></svg>