<svg xmlns="http://www.w3.org/2000/svg" width="52.56" height="56.765" viewBox="0 0 52.56 56.765">
  <path id="Icon_Envelope_open" data-name="Icon Envelope open" d="M30.28,3,4,26.126V55.572a4.193,4.193,0,0,0,4.212,4.192H52.348a4.2,4.2,0,0,0,4.212-4.192V26.126L30.28,3ZM23.973,45.048,9.256,57.662H51.3L36.587,45.048ZM30.28,5.733,53.406,26.126,34.485,42.946h-8.41L7.154,26.126,30.28,5.733ZM53.8,57.085l-16.157-14.1L54.458,28.229V55.56a2.1,2.1,0,0,1-.662,1.525Zm-47.031,0,16.157-14.1L6.1,28.229V55.56a2.1,2.1,0,0,0,.662,1.525Z" transform="translate(-4 -3)" fill="#fff" fill-rule="evenodd"/>
</svg>
