<svg xmlns="http://www.w3.org/2000/svg" xmlns:xlink="http://www.w3.org/1999/xlink" width="109" height="111" viewBox="0 0 109 111">
  <defs>
    <clipPath id="clip-path">
      <ellipse id="Ellipse_15" data-name="Ellipse 15" cx="54.5" cy="55.5" rx="54.5" ry="55.5" transform="translate(200 731)" fill="#fff" opacity="0.631"/>
    </clipPath>
  </defs>
  <g id="Mask_Group_4" data-name="Mask Group 4" transform="translate(-200 -731)" clip-path="url(#clip-path)">
    <g id="anruf" transform="translate(199.921 731.921)">
      <g id="Group_108" data-name="Group 108" transform="translate(10 14.835)">
        <path id="Path_160" data-name="Path 160" d="M66.66,53.672a8.294,8.294,0,0,0-6.015-2.759,8.576,8.576,0,0,0-6.087,2.741L48.934,59.26c-.463-.249-.925-.481-1.37-.712-.641-.32-1.246-.623-1.762-.943A61.124,61.124,0,0,1,31.155,44.257a36.06,36.06,0,0,1-4.805-7.582c1.459-1.335,2.812-2.723,4.129-4.058.5-.5,1-1.014,1.495-1.513,3.737-3.737,3.737-8.578,0-12.316l-4.859-4.859c-.552-.552-1.121-1.121-1.655-1.691-1.068-1.1-2.189-2.242-3.346-3.31a8.424,8.424,0,0,0-5.962-2.616A8.718,8.718,0,0,0,10.1,8.93l-.036.036-6.051,6.1A13.02,13.02,0,0,0,.153,23.346c-.427,5.2,1.1,10.038,2.278,13.205,2.883,7.777,7.19,14.985,13.615,22.709A83.751,83.751,0,0,0,43.933,81.1c4.093,1.94,9.557,4.236,15.661,4.627.374.018.765.036,1.121.036a13.41,13.41,0,0,0,10.269-4.414c.018-.036.053-.053.071-.089a40.459,40.459,0,0,1,3.114-3.221c.765-.73,1.548-1.495,2.314-2.3a8.878,8.878,0,0,0,2.687-6.158,8.553,8.553,0,0,0-2.741-6.1Zm6.371,18.74c-.018,0-.018.018,0,0-.694.747-1.406,1.424-2.171,2.171a46.8,46.8,0,0,0-3.435,3.559,8.58,8.58,0,0,1-6.692,2.83c-.267,0-.552,0-.819-.018-5.286-.338-10.2-2.4-13.882-4.164A79.056,79.056,0,0,1,19.765,56.217C13.7,48.9,9.638,42.139,6.951,34.878,5.3,30.447,4.691,26.994,4.958,23.737a8.17,8.17,0,0,1,2.456-5.286l6.069-6.069a4.046,4.046,0,0,1,2.705-1.264,3.807,3.807,0,0,1,2.6,1.246l.053.053c1.086,1.014,2.118,2.064,3.2,3.186.552.57,1.121,1.139,1.691,1.726l4.859,4.859c1.886,1.886,1.886,3.631,0,5.517-.516.516-1.014,1.032-1.531,1.531-1.495,1.531-2.919,2.954-4.467,4.342-.036.036-.071.053-.089.089a3.63,3.63,0,0,0-.925,4.04l.053.16a39.007,39.007,0,0,0,5.748,9.379l.018.018a65.321,65.321,0,0,0,15.8,14.38,24.3,24.3,0,0,0,2.189,1.192c.641.32,1.246.623,1.762.943.071.036.142.089.214.125a3.858,3.858,0,0,0,1.762.445,3.805,3.805,0,0,0,2.705-1.228l6.087-6.087A4.026,4.026,0,0,1,60.609,55.7,3.625,3.625,0,0,1,63.172,57l.036.036,9.806,9.806C74.847,68.657,74.847,70.526,73.031,72.412Z" transform="translate(0 -1.437)" fill="#9c528b"/>
        <path id="Path_161" data-name="Path 161" d="M58.409,24.562A22.9,22.9,0,0,1,77.061,43.213a2.388,2.388,0,0,0,2.367,1.993,3.177,3.177,0,0,0,.409-.036,2.4,2.4,0,0,0,1.975-2.776A27.7,27.7,0,0,0,59.246,19.828a2.415,2.415,0,0,0-2.776,1.958A2.377,2.377,0,0,0,58.409,24.562Z" transform="translate(-12.821 -4.504)" fill="#9c528b"/>
        <path id="Path_162" data-name="Path 162" d="M97.265,37.2A45.6,45.6,0,0,0,60.105.037a2.4,2.4,0,1,0-.783,4.734A40.734,40.734,0,0,1,92.531,37.98,2.388,2.388,0,0,0,94.9,39.973a3.177,3.177,0,0,0,.409-.036A2.358,2.358,0,0,0,97.265,37.2Z" transform="translate(-13.022 0)" fill="#9c528b"/>
      </g>
    </g>
  </g>
</svg>
